<svg xmlns="http://www.w3.org/2000/svg" width="1024" height="1024" viewBox="0 0 1024 1024">
  <defs>
    <style>
      .cls-1, .cls-2 {
        fill: #fff;
      }

      .cls-1 {
        fill-rule: evenodd;
      }
    </style>
  </defs>
  <path class="cls-1" d="M118,292h62V730H118V292Zm62,376H397v62H180V668Z"/>
  <rect class="cls-2" x="463" y="291" width="62" height="62"/>
  <rect class="cls-2" x="463" y="389" width="62" height="341"/>
  <path class="cls-1" d="M679.06,522.721l-19.835,9.517a4,4,0,0,1-5.337-1.876l-28.55-59.5a11.985,11.985,0,0,1,.918-11.955l-14.543-30.31a6,6,0,0,1,2.815-8l5.409-2.6a6,6,0,0,1,8,2.814l14.543,30.31a11.987,11.987,0,0,1,9.9,6.765l28.55,59.505A4,4,0,0,1,679.06,522.721Z"/>
  <path class="cls-1" d="M838.82,430.359l-33.749-8.672,36.644,87.684L874.5,625l41.471,81.9-31.826,17.345-46.293-81.9-44.361-86.723-49.525,62.744-5.532,110.49-34.279,1.1-0.347-132.9,47.253-73.235L733.7,450.591l-33.114,23.856-68.146,25.288L620.026,473.9l74.421-37.791,24.793-52,15.427-16.378,27.966-8.675,33.759,4.821,74.271,43.159,23.127,80.176-27.969,10.6ZM732,356.534a32.247,32.247,0,1,1,32.275-32.246A32.262,32.262,0,0,1,732,356.534Z"/>
</svg>
